
<svg width="837px" height="676px" viewBox="0 0 837 676" version="1.1" xmlns="http://www.w3.org/2000/svg" xmlns:xlink="http://www.w3.org/1999/xlink">
    <g id="Page-1" stroke="none" stroke-width="1" fill="none" fill-rule="evenodd">
        <g id="iPhone-14-Plus-Logo-Copy-2" transform="translate(-223.000000, -821.000000)" fill="#FFFFFF">
            <g id="Group-2" transform="translate(223.000000, 821.000000)">
                <g id="iconly_svg_optimized-optimized-(1)" transform="translate(0.000000, 568.000000)" fill-rule="nonzero">
                    <g id="Group">
                        <g transform="translate(0.140754, 0.025371)" id="Shape">
                            <g>
                                <g>
                                    <g>
                                        <path d="M18.9348549,42.2703677 C21.3668546,38.6432072 24.7369114,35.7019521 29.0450252,33.4466023 C33.3299771,31.1680015 38.2171385,30.028701 43.7065093,30.028701 C50.1223563,30.028701 55.9244128,31.6213965 61.1126789,34.8067875 C66.300945,37.9689274 70.4006017,42.479627 73.411649,48.3388862 C76.4458582,54.1748945 77.9629628,60.9409438 77.9629628,68.6370344 C77.9629628,76.3331249 76.4458582,83.1456764 73.411649,89.0746887 C70.4006017,95.0269521 66.300945,99.6306558 61.1126789,102.8858 C55.9244128,106.140944 50.1223563,107.768516 43.7065093,107.768516 C38.1244909,107.768516 33.2373295,106.664092 29.0450252,104.455244 C24.829559,102.223145 21.4595022,99.3400179 18.9348549,95.8058615 L18.9348549,106.547837 L-1.98682149e-07,106.547837 L-1.98682149e-07,5.99876277 L18.9348549,5.99876277 L18.9348549,42.2703677 Z M58.6111934,68.6370344 C58.6111934,64.1030838 57.6847173,60.1852854 55.8317652,56.8836393 C53.978813,53.5819932 51.5468133,51.0708821 48.535766,49.350306 C45.5015568,47.6297298 42.2241476,46.7694418 38.7035385,46.7694418 C35.2755769,46.7694418 32.0560725,47.6529809 29.0450252,49.4200591 C26.010816,51.1871373 23.5672353,53.7447504 21.7142832,57.0928986 C19.861331,60.4410467 18.9348549,64.3820961 18.9348549,68.9160467 C18.9348549,73.4499973 19.861331,77.3910467 21.7142832,80.7391949 C23.5672353,84.087343 26.010816,86.6449562 29.0450252,88.4120344 C32.0560725,90.1791126 35.2755769,91.0626517 38.7035385,91.0626517 C42.2241476,91.0626517 45.5015568,90.1558615 48.535766,88.3422813 C51.5468133,86.528701 53.978813,83.9478368 55.8317652,80.5996887 C57.6847173,77.2515405 58.6111934,73.2639891 58.6111934,68.6370344 Z M110.725473,42.9678986 C113.157473,38.9687216 116.342235,35.8414582 120.279758,33.5861084 C124.19412,31.3075076 128.675948,30.1682072 133.725242,30.1682072 L133.725242,50.1524665 L128.722272,50.1524665 C122.769663,50.1524665 118.276254,51.5591537 115.242044,54.3725282 C112.230997,57.1859027 110.725473,62.0802443 110.725473,69.0555529 L110.725473,106.547837 L91.7558756,106.547837 L91.7558756,31.2842566 L110.725473,31.2842566 L110.725473,42.9678986 Z M141.577127,68.6370344 C141.577127,61.033948 143.094232,54.2795241 146.128441,48.3737628 C149.139488,42.4912525 153.239145,37.9689274 158.427411,34.8067875 C163.615677,31.6213965 169.417734,30.028701 175.833581,30.028701 C181.415599,30.028701 186.314341,31.1680015 190.529808,33.4466023 C194.722112,35.7019521 198.080588,38.5502031 200.605235,41.9913554 L200.605235,31.2842566 L219.679062,31.2842566 L219.679062,106.547837 L200.605235,106.547837 L200.605235,95.5268492 C198.173235,99.0610056 194.81476,101.990635 190.529808,104.315738 C186.244856,106.61759 181.29979,107.768516 175.694609,107.768516 C169.37141,107.768516 163.615677,106.140944 158.427411,102.8858 C153.239145,99.6306558 149.139488,95.0269521 146.128441,89.0746887 C143.094232,83.1456764 141.577127,76.3331249 141.577127,68.6370344 Z M200.605235,68.9160467 C200.605235,64.289092 199.701921,60.3247916 197.895293,57.0231455 C196.088664,53.7214994 193.656664,51.1871373 190.599293,49.4200591 C187.51876,47.6529809 184.218189,46.7694418 180.69758,46.7694418 C177.176971,46.7694418 173.934305,47.6297298 170.969581,49.350306 C167.981696,51.0708821 165.561277,53.5819932 163.708325,56.8836393 C161.855373,60.1852854 160.928897,64.1030838 160.928897,68.6370344 C160.928897,73.170985 161.855373,77.1352854 163.708325,80.5299356 C165.561277,83.9245858 168.004858,86.528701 171.039067,88.3422813 C174.050114,90.1558615 177.269619,91.0626517 180.69758,91.0626517 C184.218189,91.0626517 187.51876,90.1791126 190.599293,88.4120344 C193.656664,86.6449562 196.088664,84.110594 197.895293,80.808948 C199.701921,77.4840508 200.605235,73.5197504 200.605235,68.9160467 Z M247.855516,22.2861084 C244.49704,22.2861084 241.717612,21.2281866 239.517231,19.112343 C237.31685,16.9732484 236.21666,14.3226311 236.21666,11.1604912 C236.21666,7.99835125 237.31685,5.34773396 239.517231,3.20863931 C241.717612,1.06954466 244.49704,-2.66144091e-06 247.855516,-2.66144091e-06 C251.19083,-2.66144091e-06 253.958677,1.06954466 256.159058,3.20863931 C258.3826,5.34773396 259.494372,7.99835125 259.494372,11.1604912 C259.494372,14.3226311 258.3826,16.9732484 256.159058,19.112343 C253.958677,21.2281866 251.19083,22.2861084 247.855516,22.2861084 Z M238.231745,31.2842566 L257.1666,31.2842566 L257.1666,106.547837 L238.231745,106.547837 L238.231745,31.2842566 Z M317.410708,30.1682072 C326.351202,30.1682072 333.577716,33.0048327 339.090249,38.6780838 C344.57962,44.3280838 347.324305,52.2334336 347.324305,62.3941331 L347.324305,106.547837 L328.38945,106.547837 L328.38945,64.9749973 C328.38945,58.9994829 326.895507,54.3957792 323.907622,51.1638862 C320.942898,47.9552443 316.889565,46.3509233 311.747623,46.3509233 C306.513033,46.3509233 302.378634,47.9552443 299.344424,51.1638862 C296.333377,54.3957792 294.827854,58.9994829 294.827854,64.9749973 L294.827854,106.547837 L275.858256,106.547837 L275.858256,31.2842566 L294.827854,31.2842566 L294.827854,40.6311702 C297.352501,37.3760261 300.572005,34.818413 304.486367,32.9583307 C308.42389,31.0982484 312.732004,30.1682072 317.410708,30.1682072 Z M404.198356,46.908948 L387.382815,46.908948 L387.382815,83.3200591 C387.382815,85.8544212 387.996605,87.6912525 389.224186,88.8305529 C390.451767,89.9466023 392.501595,90.504627 395.373671,90.504627 L404.198356,90.504627 L404.198356,106.547837 L392.281557,106.547837 C376.299845,106.547837 368.308988,98.7587422 368.308988,83.1805529 L368.308988,46.908948 L359.380075,46.908948 L359.380075,31.2842566 L368.308988,31.2842566 L368.308988,12.6601825 L387.382815,12.6601825 L387.382815,31.2842566 L404.198356,31.2842566 L404.198356,46.908948 Z M436.821895,42.9678986 C439.253895,38.9687216 442.427076,35.8414582 446.341437,33.5861084 C450.27896,31.3075076 454.772369,30.1682072 459.821664,30.1682072 L459.821664,50.1524665 L454.818693,50.1524665 C448.866084,50.1524665 444.372675,51.5591537 441.338466,54.3725282 C438.327419,57.1859027 436.821895,62.0802443 436.821895,69.0555529 L436.821895,106.547837 L417.852297,106.547837 L417.852297,31.2842566 L436.821895,31.2842566 L436.821895,42.9678986 Z M524.234914,31.2842566 L543.343484,31.2842566 L543.343484,106.547837 L524.234914,106.547837 L524.234914,97.0265405 C521.802915,100.304936 518.629734,102.862549 514.715372,104.69938 C510.777849,106.559462 506.516059,107.489504 501.930002,107.489504 C496.046879,107.489504 490.858613,106.245573 486.365204,103.757713 C481.848633,101.269853 478.304862,97.6078163 475.733891,92.7716023 C473.16292,87.9121373 471.877434,82.1342566 471.877434,75.4379603 L471.877434,31.2842566 L490.812289,31.2842566 L490.812289,72.7175899 C490.812289,78.6931043 492.306232,83.2851825 495.294117,86.4938245 C498.258841,89.7257175 502.312174,91.341664 507.454116,91.341664 C512.688706,91.341664 516.799944,89.7257175 519.787829,86.4938245 C522.752553,83.2851825 524.234914,78.6931043 524.234914,72.7175899 L524.234914,31.2842566 Z M590.697993,107.768516 C584.560089,107.768516 579.059137,106.664092 574.195137,104.455244 C569.331138,102.223145 565.474681,99.2121373 562.625767,95.4222196 C559.776853,91.6090508 558.225006,87.3889891 557.970225,82.7620344 L577.044051,82.7620344 C577.414642,85.668413 578.839099,88.0748945 581.317422,89.9814788 C583.795746,91.8648122 586.88786,92.8064788 590.593764,92.8064788 C594.183859,92.8064788 596.99803,92.0856969 599.036278,90.6441331 C601.074525,89.2025694 602.093649,87.3424871 602.093649,85.0638862 C602.093649,82.6225282 600.854487,80.7973224 598.376163,79.5882689 C595.874678,78.3559644 591.925574,77.0190303 586.52885,75.5774665 C580.92367,74.2056558 576.337613,72.7989685 572.77068,71.3574047 C569.203748,69.915841 566.134795,67.6953677 563.563824,64.695985 C560.992853,61.6966023 559.707368,57.6625488 559.707368,52.5938245 C559.707368,48.4318903 560.900206,44.6303471 563.285881,41.1891949 C565.694719,37.7480426 569.134262,35.0276722 573.604509,33.0280838 C578.051594,31.0284953 583.297765,30.028701 589.343022,30.028701 C598.283516,30.028701 605.417382,32.2724253 610.744619,36.7598739 C616.071857,41.2473224 619.001837,47.2925899 619.534561,54.8956764 L601.398792,54.8956764 C601.144011,51.9195447 599.904849,49.5479397 597.681306,47.7808615 C595.480926,46.0137833 592.527783,45.1302443 588.821879,45.1302443 C585.393917,45.1302443 582.75346,45.7696475 580.900508,47.0484541 C579.047556,48.3040097 578.12108,50.0594624 578.12108,52.3148122 C578.12108,54.8724253 579.383404,56.8022607 581.908051,58.1043183 C584.432698,59.429627 588.358641,60.7665611 593.685878,62.1151208 C599.105763,63.4636805 603.57601,64.8703677 607.09662,66.3351825 C610.617229,67.7767463 613.663019,70.0204706 616.23399,73.0663554 C618.804961,76.0889891 620.136771,80.0881661 620.229418,85.0638862 C620.229418,89.4118286 619.03658,93.3063759 616.650904,96.7475282 C614.242066,100.211931 610.802524,102.909051 606.332277,104.838886 C601.885192,106.791973 596.673764,107.768516 590.697993,107.768516 Z M674.636727,46.908948 L657.855928,46.908948 L657.855928,83.3200591 C657.855928,85.8544212 658.458138,87.6912525 659.662557,88.8305529 C660.890138,89.9466023 662.951547,90.504627 665.846785,90.504627 L674.636727,90.504627 L674.636727,106.547837 L662.719928,106.547837 C646.761377,106.547837 638.782102,98.7587422 638.782102,83.1805529 L638.782102,46.908948 L629.818446,46.908948 L629.818446,31.2842566 L638.782102,31.2842566 L638.782102,12.6601825 L657.855928,12.6601825 L657.855928,31.2842566 L674.636727,31.2842566 L674.636727,46.908948 Z M696.698438,107.489504 C693.270477,107.489504 690.456306,106.431582 688.255925,104.315738 C686.032382,102.176643 684.920611,99.5260261 684.920611,96.3638862 C684.920611,93.1784953 686.032382,90.527878 688.255925,88.4120344 C690.456306,86.2729397 693.270477,85.2033924 696.698438,85.2033924 C700.033752,85.2033924 702.790019,86.2729397 704.967238,88.4120344 C707.121294,90.527878 708.198323,93.1784953 708.198323,96.3638862 C708.198323,99.5260261 707.121294,102.176643 704.967238,104.315738 C702.790019,106.431582 700.033752,107.489504 696.698438,107.489504 Z M718.621179,68.6370344 C718.621179,61.033948 720.138284,54.2795241 723.172493,48.3737628 C726.18354,42.4912525 730.283197,37.9689274 735.471463,34.8067875 C740.659729,31.6213965 746.461785,30.028701 752.877632,30.028701 C758.482813,30.028701 763.381555,31.1680015 767.573859,33.4466023 C771.766164,35.7019521 775.124639,38.5502031 777.649287,41.9913554 L777.649287,31.2842566 L796.723113,31.2842566 L796.723113,106.547837 L777.649287,106.547837 L777.649287,95.5268492 C775.217287,99.0610056 771.858811,101.990635 767.573859,104.315738 C763.288907,106.61759 758.343841,107.768516 752.738661,107.768516 C746.415462,107.768516 740.659729,106.140944 735.471463,102.8858 C730.283197,99.6306558 726.18354,95.0269521 723.172493,89.0746887 C720.138284,83.1456764 718.621179,76.3331249 718.621179,68.6370344 Z M777.649287,68.9160467 C777.649287,64.289092 776.745973,60.3247916 774.939344,57.0231455 C773.132716,53.7214994 770.700716,51.1871373 767.643345,49.4200591 C764.562812,47.6529809 761.262241,46.7694418 757.741632,46.7694418 C754.221023,46.7694418 750.978356,47.6297298 748.013633,49.350306 C745.025747,51.0708821 742.605329,53.5819932 740.752377,56.8836393 C738.899424,60.1852854 737.972948,64.1030838 737.972948,68.6370344 C737.972948,73.170985 738.899424,77.1352854 740.752377,80.5299356 C742.605329,83.9245858 745.048909,86.528701 748.083119,88.3422813 C751.094166,90.1558615 754.31367,91.0626517 757.741632,91.0626517 C761.262241,91.0626517 764.562812,90.1791126 767.643345,88.4120344 C770.700716,86.6449562 773.132716,84.110594 774.939344,80.808948 C776.745973,77.4840508 777.649287,73.5197504 777.649287,68.9160467 Z M824.899567,22.2861084 C821.564253,22.2861084 818.784825,21.2281866 816.561283,19.112343 C814.360902,16.9732484 813.260711,14.3226311 813.260711,11.1604912 C813.260711,7.99835125 814.360902,5.34773396 816.561283,3.20863931 C818.784825,1.06954466 821.564253,-2.66144091e-06 824.899567,-2.66144091e-06 C828.234881,-2.66144091e-06 831.002729,1.06954466 833.203109,3.20863931 C835.426652,5.34773396 836.538423,7.99835125 836.538423,11.1604912 C836.538423,14.3226311 835.426652,16.9732484 833.203109,19.112343 C831.002729,21.2281866 828.234881,22.2861084 824.899567,22.2861084 Z M815.275797,31.2842566 L834.245395,31.2842566 L834.245395,106.547837 L815.275797,106.547837 L815.275797,31.2842566 Z"></path>
                                    </g>
                                </g>
                            </g>
                        </g>
                    </g>
                </g>
                <g id="Icon" transform="translate(174.000000, 0.000000)">
                    <path d="M7.71604938,0 L477.283951,0 C481.545407,2.94966521e-14 485,3.45459298 485,7.71604938 L485,477.283951 C485,481.545407 481.545407,485 477.283951,485 L7.71604938,485 C3.45459298,485 3.44701704e-14,481.545407 1.77635684e-15,477.283951 L0,7.71604938 C-5.21877894e-16,3.45459298 3.45459298,2.55917368e-15 7.71604938,1.77635684e-15 Z M412.976288,132.037613 C412.976288,112.778263 406.180225,96.444675 392.5881,83.03685 C378.995975,69.58295 362.7315,62.856 343.794675,62.856 L69.1416,62.856 L69.1416,421.1352 L357.7554,421.1352 C376.968675,421.1352 393.394413,414.40825 407.032613,400.95435 C420.624738,387.546525 427.4208,371.212938 427.4208,351.953588 L427.4208,274.824038 C427.4208,256.900863 420.947263,241.143213 408.000188,227.551088 C411.317588,220.593763 412.976288,212.139 412.976288,202.1868 L412.976288,132.037613 Z M342.711734,131.9976 C344.709245,131.9976 345.708,133.146581 345.708,135.444542 L345.708,204.045445 C345.708,206.298348 344.709245,207.4248 342.711734,207.4248 L135.551311,207.4248 C133.18217,207.4248 131.9976,206.298348 131.9976,204.045445 L131.9976,135.444542 C131.9976,133.146581 133.18217,131.9976 135.551311,131.9976 L342.711734,131.9976 Z M345.708,348.549507 C345.708,350.845569 344.620747,351.9936 342.446242,351.9936 L135.324593,351.9936 C133.106598,351.9936 131.9976,350.845569 131.9976,348.549507 L131.9976,273.184643 C131.9976,271.248748 133.106598,270.2808 135.324593,270.2808 L342.446242,270.2808 C344.620747,270.2808 345.708,271.248748 345.708,273.184643 L345.708,348.549507 Z" id="Combined-Shape"></path>
                </g>
            </g>
        </g>
    </g>
</svg>
